<svg width="20" height="20" viewBox="0 0 20 20" fill="none" xmlns="http://www.w3.org/2000/svg">
<path fill-rule="evenodd" clip-rule="evenodd" d="M0.435974 2.18404C0 3.03969 0 4.15979 0 6.4V13.6C0 15.8402 0 16.9603 0.435974 17.816C0.819467 18.5686 1.43139 19.1805 2.18404 19.564C3.03969 20 4.15979 20 6.4 20H13.6C15.8402 20 16.9603 20 17.816 19.564C18.5686 19.1805 19.1805 18.5686 19.564 17.816C20 16.9603 20 15.8402 20 13.6V6.4C20 4.15979 20 3.03969 19.564 2.18404C19.1805 1.43139 18.5686 0.819467 17.816 0.435974C16.9603 0 15.8402 0 13.6 0H6.4C4.15979 0 3.03969 0 2.18404 0.435974C1.43139 0.819467 0.819467 1.43139 0.435974 2.18404ZM7.70391 15.4895C7.97207 15.8298 8.30168 16 8.69274 16C9.11732 16 9.44693 15.8212 9.68156 15.4636L15.7654 5.73901C15.8492 5.60634 15.9078 5.47945 15.9413 5.35833C15.9804 5.2372 16 5.11896 16 5.0036C16 4.70944 15.905 4.47008 15.7151 4.28551C15.5307 4.09517 15.2933 4 15.0028 4C14.8017 4 14.6341 4.04326 14.5 4.12978C14.3659 4.21053 14.2346 4.34895 14.1061 4.54506L8.65922 13.491L5.84358 9.75342C5.62011 9.45926 5.34358 9.31218 5.01397 9.31218C4.71788 9.31218 4.47486 9.41024 4.28492 9.60634C4.09497 9.79668 4 10.0389 4 10.3331C4 10.4658 4.02235 10.5955 4.06704 10.7224C4.11173 10.8435 4.18715 10.9704 4.2933 11.1031L7.70391 15.4895Z" fill="#1A1B22"/>
</svg>
